<svg preserveAspectRatio="none" overflow="visible" style="display: block;" width="16" height="16" viewBox="0 0 16 16" fill="none" xmlns="http://www.w3.org/2000/svg">
<g id="exit">
<path id="vector" d="M5.4668 12.6667V11.3333C5.4668 11.0388 5.70545 10.8001 6 10.8001C6.29455 10.8001 6.5332 11.0388 6.5332 11.3333V12.6667C6.5332 12.7403 6.59303 12.8001 6.66667 12.8001H12.6667C12.7403 12.8001 12.8001 12.7403 12.8001 12.6667V3.33333C12.8001 3.2597 12.7403 3.19987 12.6667 3.19987H6.66667C6.59303 3.19987 6.5332 3.2597 6.5332 3.33333V4.66667C6.5332 4.96122 6.29455 5.19987 6 5.19987C5.70545 5.19987 5.4668 4.96122 5.4668 4.66667V3.33333C5.4668 2.67059 6.00392 2.13346 6.66667 2.13346H12.6667C13.3294 2.13346 13.8665 2.67059 13.8665 3.33333V12.6667C13.8665 13.3294 13.3294 13.8665 12.6667 13.8665H6.66667C6.00392 13.8665 5.4668 13.3294 5.4668 12.6667ZM3.98633 5.59505C4.20997 5.40341 4.5466 5.42937 4.73828 5.65299C4.92992 5.87664 4.90396 6.21327 4.68034 6.40495L3.44141 7.4668H10C10.2946 7.4668 10.5332 7.70545 10.5332 8C10.5332 8.29455 10.2946 8.5332 10 8.5332H3.44141L4.68034 9.59505C4.90396 9.78673 4.92992 10.1234 4.73828 10.347C4.5466 10.5706 4.20997 10.5966 3.98633 10.4049L1.65299 8.40495C1.53478 8.30362 1.4668 8.15569 1.4668 8C1.4668 7.84431 1.53478 7.69638 1.65299 7.59505L3.98633 5.59505Z" fill="black"/>
</g>
</svg>
